<?xml version="1.0" standalone="no"?>
<!DOCTYPE svg PUBLIC "-//W3C//DTD SVG 20010904//EN"
 "http://www.w3.org/TR/2001/REC-SVG-20010904/DTD/svg10.dtd">
<svg version="1.0" xmlns="http://www.w3.org/2000/svg"
 width="1024.000000pt" height="1024.000000pt" viewBox="0 0 1024.000000 1024.000000"
 preserveAspectRatio="xMidYMid meet">

<g transform="translate(0.000000,1024.000000) scale(0.100000,-0.100000)"
fill="#000000" stroke="none">
<path d="M1941 10224 c0 -11 3 -14 6 -6 3 7 2 16 -1 19 -3 4 -6 -2 -5 -13z"/>
<path d="M710 10216 c0 -2 8 -10 18 -17 15 -13 16 -12 3 4 -13 16 -21 21 -21
13z"/>
<path d="M2670 10210 c-9 -6 -10 -10 -3 -10 6 0 15 5 18 10 8 12 4 12 -15 0z"/>
<path d="M7131 10216 c2 -2 15 -9 29 -15 24 -11 24 -11 6 3 -16 13 -49 24 -35
12z"/>
<path d="M7201 10218 c2 -2 16 -14 32 -27 15 -14 27 -22 27 -18 0 10 -42 47
-54 47 -5 0 -7 -1 -5 -2z"/>
<path d="M7369 10205 c16 -30 40 -59 45 -54 2 2 -10 20 -26 39 -17 19 -25 26
-19 15z"/>
<path d="M966 10187 c3 -10 9 -15 12 -12 3 3 0 11 -7 18 -10 9 -11 8 -5 -6z"/>
<path d="M1641 10164 c0 -11 3 -14 6 -6 3 7 2 16 -1 19 -3 4 -6 -2 -5 -13z"/>
<path d="M7336 10172 c-3 -5 1 -9 9 -9 8 0 12 4 9 9 -3 4 -7 8 -9 8 -2 0 -6
-4 -9 -8z"/>
<path d="M3065 10144 c-9 -14 -15 -27 -13 -30 2 -2 12 10 22 26 21 37 15 40
-9 4z"/>
<path d="M2659 10133 c-13 -16 -12 -17 4 -4 9 7 17 15 17 17 0 8 -8 3 -21 -13z"/>
<path d="M708 10093 c7 -3 16 -2 19 1 4 3 -2 6 -13 5 -11 0 -14 -3 -6 -6z"/>
<path d="M1421 10004 c0 -11 3 -14 6 -6 3 7 2 16 -1 19 -3 4 -6 -2 -5 -13z"/>
<path d="M2343 9985 c0 -22 2 -30 4 -17 2 12 2 30 0 40 -3 9 -5 -1 -4 -23z"/>
<path d="M8351 10004 c0 -11 3 -14 6 -6 3 7 2 16 -1 19 -3 4 -6 -2 -5 -13z"/>
<path d="M2291 9854 c0 -11 3 -14 6 -6 3 7 2 16 -1 19 -3 4 -6 -2 -5 -13z"/>
<path d="M1671 9820 c14 -31 19 -36 19 -24 0 6 -7 19 -16 30 -14 18 -14 18 -3
-6z"/>
<path d="M2262 9785 c0 -16 2 -22 5 -12 2 9 2 23 0 30 -3 6 -5 -1 -5 -18z"/>
<path d="M7803 9685 c0 -27 2 -38 4 -22 2 15 2 37 0 50 -2 12 -4 0 -4 -28z"/>
<path d="M1680 9571 c0 -6 4 -13 10 -16 6 -3 7 1 4 9 -7 18 -14 21 -14 7z"/>
<path d="M2562 9550 c0 -19 2 -27 5 -17 2 9 2 25 0 35 -3 9 -5 1 -5 -18z"/>
<path d="M1690 9500 c6 -11 13 -20 16 -20 2 0 0 9 -6 20 -6 11 -13 20 -16 20
-2 0 0 -9 6 -20z"/>
<path d="M8785 9300 c-3 -5 -1 -10 4 -10 6 0 11 5 11 10 0 6 -2 10 -4 10 -3 0
-8 -4 -11 -10z"/>
<path d="M77 9279 c7 -7 15 -10 18 -7 3 3 -2 9 -12 12 -14 6 -15 5 -6 -5z"/>
<path d="M1246 9247 c3 -10 9 -15 12 -12 3 3 0 11 -7 18 -10 9 -11 8 -5 -6z"/>
<path d="M8879 9213 c-13 -16 -12 -17 4 -4 16 13 21 21 13 21 -2 0 -10 -8 -17
-17z"/>
<path d="M3387 9090 c-119 -15 -263 -69 -364 -138 -99 -67 -191 -182 -237
-296 l-23 -57 -7 32 c-3 17 -6 43 -6 58 0 41 -16 58 -18 19 -1 -18 -8 -78 -16
-133 -8 -55 -18 -138 -22 -183 -7 -93 -14 -91 -40 8 -30 114 -37 96 -30 -75 5
-139 25 -282 50 -360 9 -26 -19 30 -99 200 -87 185 -142 276 -216 360 -189
213 -456 357 -758 410 -284 50 -523 -21 -868 -259 -72 -50 -130 -92 -129 -93
2 -2 29 10 62 26 124 61 288 105 523 141 127 20 166 20 129 -1 -33 -19 -234
-189 -222 -189 3 0 19 7 36 16 86 45 311 89 498 99 l115 6 -40 -19 c-55 -26
-212 -124 -259 -161 l-39 -31 34 7 c19 5 97 8 174 7 144 -1 253 -21 349 -63
l40 -17 -108 -43 c-107 -42 -178 -66 -226 -74 -14 -2 7 -5 45 -6 159 -4 405
-41 405 -61 0 -3 -28 -12 -61 -19 -34 -7 -58 -16 -53 -20 5 -4 34 -15 64 -24
48 -14 201 -94 222 -115 4 -4 -25 -5 -65 -1 -39 4 -73 6 -75 4 -1 -1 26 -20
60 -43 67 -43 224 -171 311 -253 l52 -50 -100 64 c-291 186 -394 239 -539 281
-194 57 -421 74 -586 46 -383 -65 -743 -328 -914 -668 -66 -130 -116 -340
-116 -482 0 -97 15 -123 22 -38 11 131 127 337 276 488 91 93 93 94 88 60 -6
-38 -9 -189 -6 -310 l1 -75 28 80 c63 182 177 370 291 480 44 43 51 47 46 25
-13 -53 -26 -209 -26 -299 l0 -95 59 87 c121 177 233 297 358 384 l60 42 -25
-67 c-31 -85 -82 -255 -77 -260 1 -2 27 20 57 48 107 102 304 213 418 234 l34
6 -26 -27 c-30 -32 -122 -166 -111 -161 5 2 35 17 68 34 85 45 156 64 260 70
75 4 87 3 74 -8 -8 -7 -31 -26 -50 -42 -21 -17 -26 -26 -14 -21 11 3 57 11
103 18 95 12 225 0 326 -30 l58 -18 -243 -1 c-215 0 -255 -3 -335 -22 -185
-44 -360 -119 -510 -217 -501 -332 -695 -1037 -435 -1581 81 -170 156 -266
301 -384 37 -30 49 -37 37 -20 -146 206 -174 284 -184 518 -3 78 -4 142 -1
142 2 0 19 -20 37 -45 41 -57 162 -156 245 -200 37 -19 69 -35 72 -35 4 0 -9
17 -29 39 -73 81 -155 247 -203 410 -42 146 -38 148 69 45 51 -49 118 -110
148 -136 l55 -46 -38 72 c-44 84 -64 165 -73 291 -7 90 5 219 26 284 l12 34
44 -85 c43 -84 107 -162 168 -205 l31 -21 -28 56 c-31 62 -58 173 -58 238 0
64 44 223 84 300 49 97 53 101 54 64 1 -50 31 -138 75 -224 l42 -81 5 110 c7
135 33 217 100 317 40 61 94 128 103 128 1 0 2 -33 3 -73 0 -73 17 -164 38
-204 9 -18 11 -12 12 42 1 97 50 176 151 246 38 27 253 129 270 129 4 0 -16
-24 -43 -52 -307 -317 -520 -778 -591 -1273 -27 -194 -25 -554 5 -725 84 -476
274 -864 601 -1227 l89 -98 -427 -106 c-234 -58 -469 -118 -521 -133 -213 -60
-410 -120 -406 -123 2 -2 59 5 127 16 185 29 382 55 923 121 l489 60 66 -53
c302 -244 716 -461 1086 -570 284 -84 509 -128 780 -152 872 -77 1768 181
2429 699 96 75 101 78 140 71 23 -3 291 -37 596 -76 305 -38 633 -81 729 -94
95 -14 175 -24 177 -22 8 8 -568 164 -1048 283 l-316 78 66 71 c262 276 465
627 560 971 92 328 113 741 56 1073 -35 203 -100 419 -186 621 -91 213 -192
370 -366 568 -35 39 -56 69 -45 65 10 -3 73 -32 140 -64 192 -90 244 -151 260
-304 l6 -59 25 64 c19 49 25 85 26 147 l1 82 28 -27 c44 -42 123 -164 147
-229 29 -76 52 -200 46 -238 -5 -26 -1 -22 29 24 40 63 75 160 75 210 1 35 1
35 17 16 33 -42 82 -164 99 -245 27 -136 1 -320 -56 -393 -34 -42 -23 -41 32
5 62 51 122 131 163 216 17 34 33 62 36 62 14 0 32 -116 36 -236 6 -158 -11
-258 -61 -356 l-33 -66 66 51 c36 28 98 84 136 124 39 40 73 73 77 73 10 0
-19 -131 -47 -216 -40 -120 -96 -222 -186 -344 l-34 -45 30 19 c17 11 57 36
90 55 33 20 102 77 154 129 l94 93 -5 -143 c-4 -110 -11 -159 -28 -213 -35
-111 -101 -230 -159 -292 -34 -36 -15 -27 48 21 126 97 205 192 276 331 88
172 125 344 125 575 0 261 -59 483 -183 692 -182 304 -546 526 -971 593 -80
13 -153 16 -286 13 -98 -1 -173 0 -167 3 23 12 152 37 227 44 66 6 133 0 230
-22 21 -5 18 0 -17 28 -23 18 -41 35 -38 37 8 9 148 1 194 -10 57 -13 166 -61
175 -77 4 -6 12 -11 17 -11 12 0 -1 25 -62 118 -27 41 -42 72 -35 72 21 0 118
-36 176 -65 83 -42 213 -130 273 -185 l54 -49 -25 77 c-13 42 -39 119 -57 170
-18 50 -30 92 -28 92 3 0 45 -32 94 -71 112 -89 338 -351 375 -434 13 -29 13
-27 14 40 0 75 -17 294 -26 335 -8 37 105 -76 166 -166 47 -68 152 -269 180
-344 20 -53 28 -56 24 -8 -2 23 -5 109 -8 190 l-4 148 29 -20 c47 -34 148
-151 204 -236 73 -111 106 -178 126 -254 l17 -65 1 45 c4 195 -80 447 -211
637 -53 77 -195 220 -293 294 -128 98 -286 172 -462 216 -95 24 -127 28 -268
27 -295 0 -491 -66 -825 -280 -69 -44 -143 -90 -165 -103 l-40 -23 45 42 c133
124 299 254 368 289 23 12 42 23 42 25 0 2 -17 0 -37 -4 -21 -4 -60 -10 -88
-14 l-50 -6 25 20 c40 32 180 99 239 113 63 16 59 20 -29 38 l-65 13 35 14
c70 28 185 44 332 44 81 0 157 -3 170 -7 17 -4 19 -3 8 3 -16 10 -176 64 -330
110 l-95 29 96 31 c53 17 125 36 160 42 89 14 225 13 287 -4 79 -20 77 -18
-87 94 -32 22 -90 56 -127 76 l-69 36 125 -7 c188 -10 370 -46 487 -96 24 -10
42 -15 39 -11 -2 4 -54 48 -114 97 l-111 90 36 3 c93 8 446 -75 583 -138 47
-22 74 -32 60 -22 -13 9 -81 57 -150 106 -152 109 -240 157 -355 196 -206 70
-407 65 -652 -16 -276 -90 -469 -221 -618 -419 -53 -70 -175 -309 -230 -447
-38 -97 -59 -131 -30 -49 24 70 44 209 46 331 4 191 2 198 -27 100 -14 -46
-27 -86 -28 -88 -2 -2 -7 34 -11 80 -3 46 -13 139 -21 208 -7 69 -14 131 -14
139 0 33 -12 -2 -23 -69 l-12 -73 -24 59 c-77 189 -231 330 -437 400 -139 48
-385 44 -613 -9 -52 -12 -50 -12 80 -13 120 0 145 -4 239 -32 149 -44 206 -67
185 -75 -9 -4 -33 -7 -53 -7 -50 0 -192 -22 -192 -30 0 -3 26 -11 58 -18 122
-25 318 -140 422 -247 51 -52 58 -51 -85 -16 -44 11 -89 22 -100 26 -11 4 4
-7 32 -24 87 -52 200 -178 274 -306 27 -46 31 -48 -91 50 -41 34 -91 72 -110
85 l-35 24 34 -39 c59 -68 147 -210 221 -356 39 -77 70 -142 68 -144 -2 -2
-23 29 -48 68 -88 144 -206 270 -330 354 -258 174 -665 214 -990 97 -254 -91
-463 -271 -575 -494 -28 -55 -87 -220 -80 -220 3 0 13 17 24 38 29 57 125 157
224 233 49 38 92 68 94 65 2 -2 0 -47 -6 -100 -15 -129 -15 -128 19 -69 39 69
135 170 220 233 37 27 70 50 73 50 3 0 -5 -33 -18 -72 -12 -40 -26 -89 -30
-108 l-7 -35 33 31 c45 41 140 104 214 141 67 34 183 78 189 72 2 -2 -13 -32
-33 -65 -21 -34 -47 -85 -59 -113 l-21 -52 31 26 c80 67 209 112 350 121 l93
6 -52 -46 c-28 -25 -66 -64 -83 -86 l-31 -40 38 18 c50 22 265 22 332 0 l45
-15 -85 -22 c-101 -28 -127 -40 -83 -41 56 0 177 -50 312 -126 72 -42 132 -77
132 -79 0 -2 -48 14 -107 35 -167 58 -275 74 -462 67 -123 -5 -177 -11 -256
-32 -250 -65 -451 -193 -602 -380 -241 -301 -301 -617 -180 -950 l22 -60 8 79
c9 96 42 197 106 331 74 153 73 152 94 48 11 -54 35 -123 61 -178 l43 -90 1
76 c2 142 49 305 130 449 l37 65 7 -64 c9 -83 43 -194 74 -248 14 -24 26 -43
28 -43 2 0 2 18 -1 40 -12 86 45 267 118 380 44 69 109 150 120 150 4 0 2 -19
-3 -42 -17 -74 -4 -190 31 -263 16 -36 31 -65 33 -65 2 0 3 28 4 63 1 111 75
236 202 344 36 30 66 53 67 51 2 -2 -3 -32 -11 -68 -7 -36 -14 -78 -14 -94 0
-28 2 -26 64 37 86 86 197 137 296 137 31 -1 33 -2 15 -11 -35 -20 -95 -62
-92 -65 1 -2 31 6 65 16 76 24 217 43 188 26 -303 -181 -494 -404 -568 -663
-18 -65 -22 -104 -22 -228 -1 -198 25 -315 105 -478 107 -219 250 -364 493
-501 l98 -56 -40 47 c-96 116 -182 277 -213 402 -21 86 -39 221 -29 221 4 0
15 -10 26 -21 26 -30 117 -90 191 -127 l62 -31 -34 45 c-44 57 -97 153 -125
224 -26 65 -71 230 -63 230 3 0 33 -21 66 -46 62 -46 143 -93 135 -77 -61 122
-87 238 -88 378 l0 100 21 -35 c22 -37 88 -110 100 -110 3 0 0 23 -7 52 -17
64 -18 191 -3 309 l12 88 32 -67 c18 -37 40 -76 50 -87 l17 -20 -8 20 c-12 29
-16 272 -6 325 l8 45 61 -120 c290 -572 380 -1169 262 -1735 -63 -303 -241
-664 -447 -905 -119 -139 -408 -407 -479 -443 -12 -6 -95 1 -238 19 -594 77
-892 99 -1430 106 -653 8 -1062 -17 -1738 -107 l-219 -30 -96 72 c-123 90
-377 344 -470 468 -282 379 -417 750 -438 1203 -15 317 53 698 181 1015 98
246 190 442 207 442 11 0 21 -172 14 -264 -6 -85 -5 -89 10 -68 9 13 26 48 38
78 l23 55 17 -140 c21 -169 12 -235 -40 -312 -20 -31 -26 -46 -16 -40 30 16
110 98 139 142 l28 43 3 -55 c8 -119 -36 -320 -88 -403 -11 -19 -20 -36 -20
-39 0 -4 50 28 111 69 l111 75 -7 -33 c-15 -73 -49 -177 -80 -244 -37 -82
-107 -188 -133 -203 -10 -6 -12 -11 -4 -11 24 0 150 69 217 120 l66 50 -5 -42
c-3 -24 -8 -70 -12 -102 -14 -140 -105 -323 -219 -443 -39 -40 -69 -73 -67
-73 1 0 48 23 104 51 178 90 326 219 431 376 157 236 214 554 147 819 -60 240
-265 493 -520 643 l-55 33 75 -5 c41 -3 101 -14 133 -25 65 -23 65 -13 -1 29
-45 28 -45 29 -16 29 43 0 149 -27 192 -49 57 -29 127 -96 151 -143 l22 -43
-6 50 c-4 28 -10 66 -15 85 -22 97 -22 92 -2 81 38 -20 171 -152 200 -199 42
-66 75 -168 69 -214 -3 -21 -3 -38 -1 -38 3 0 19 30 36 66 35 75 47 177 29
254 -5 24 -9 46 -7 47 1 2 26 -26 54 -61 118 -144 184 -300 186 -438 l1 -78
27 53 c37 70 64 158 73 236 7 60 9 63 22 45 25 -33 79 -146 103 -214 33 -97
50 -186 50 -270 l1 -75 35 68 c34 66 74 206 74 260 0 15 4 27 9 27 14 0 116
-212 147 -305 21 -61 28 -100 28 -167 1 -100 8 -95 50 32 40 120 49 189 44
323 -4 106 -10 136 -42 230 -113 338 -382 603 -721 711 -273 87 -594 75 -834
-30 -30 -14 -56 -23 -57 -21 -2 2 52 36 119 75 133 78 266 132 324 132 57 0
28 15 -77 40 l-95 24 50 14 c80 22 247 19 325 -6 l65 -21 -65 62 c-36 35 -78
73 -95 85 l-30 21 70 1 c129 0 283 -48 372 -116 18 -14 33 -22 33 -19 0 18
-62 137 -93 178 -46 58 -35 60 82 12 108 -44 204 -102 269 -160 61 -55 63 -50
23 75 -16 49 -27 90 -24 90 3 0 33 -20 67 -44 88 -63 197 -172 233 -236 l32
-55 -5 55 c-3 30 -10 79 -16 108 -5 30 -7 56 -5 59 8 7 194 -136 239 -183 20
-22 53 -64 72 -94 20 -30 36 -52 36 -49 0 23 -39 128 -72 194 -119 239 -341
426 -608 515 -228 75 -505 79 -713 9 -263 -88 -400 -196 -573 -448 -35 -52
-64 -92 -64 -89 0 13 63 142 119 242 71 127 140 226 177 255 15 12 24 21 20
21 -14 0 -52 -23 -96 -60 -65 -53 -140 -102 -140 -92 0 5 19 38 41 73 52 80
182 209 240 237 52 25 39 27 -40 8 -31 -8 -76 -17 -101 -20 l-45 -6 55 51
c118 111 313 219 438 244 17 4 32 10 32 14 0 8 -156 30 -240 34 l-45 2 90 32
c152 55 242 75 365 80 86 4 109 8 90 15 -91 34 -337 54 -463 38z m2503 -5080
c338 -18 690 -44 690 -49 0 -9 -294 -128 -422 -171 -328 -111 -681 -170 -1018
-170 -366 0 -697 56 -1050 175 -147 50 -386 147 -403 164 -13 13 549 49 1018
65 174 6 1003 -4 1185 -14z"/>
<path d="M2227 8059 c7 -7 15 -10 18 -7 3 3 -2 9 -12 12 -14 6 -15 5 -6 -5z"/>
<path d="M5071 6238 c-61 -31 -84 -66 -85 -127 -1 -36 5 -57 22 -80 25 -35 22
-38 -13 -15 -37 24 -116 21 -161 -6 -40 -25 -73 -86 -74 -134 0 -49 36 -110
79 -134 71 -40 155 -23 218 45 l34 36 -6 -39 c-28 -162 -61 -240 -128 -308
-58 -57 -108 -79 -193 -84 -57 -3 -81 0 -122 18 -68 29 -144 111 -182 196 -17
36 -30 68 -30 70 0 2 18 -6 40 -17 63 -33 109 -35 150 -7 43 29 60 61 60 115
0 33 -7 50 -31 77 -42 49 -86 56 -147 24 l-47 -24 0 54 c0 48 -3 57 -33 83
-85 76 -226 -13 -193 -123 7 -20 20 -43 31 -51 18 -12 16 -14 -26 -14 -55 0
-94 -26 -113 -77 -31 -80 29 -162 112 -152 42 5 102 46 112 76 3 11 11 20 17
20 13 0 4 -154 -12 -211 -16 -56 -51 -100 -104 -134 -44 -26 -58 -30 -125 -30
-122 0 -203 50 -306 190 -70 95 -70 95 -27 73 47 -25 130 -20 170 9 99 73 96
201 -7 270 -62 42 -162 20 -209 -44 l-21 -28 1 52 c0 64 -24 109 -72 134 -92
50 -203 -13 -203 -114 0 -64 30 -117 83 -144 48 -25 48 -24 262 -498 76 -167
154 -333 163 -343 1 -1 37 7 81 17 324 80 638 121 994 128 406 8 735 -23 1095
-104 88 -19 166 -36 173 -37 12 -1 105 195 319 666 65 144 68 148 113 170 56
28 90 77 90 130 0 132 -154 193 -245 98 -27 -28 -30 -38 -30 -95 l0 -64 -23
30 c-32 40 -72 59 -127 59 -52 0 -77 -10 -118 -48 -110 -103 13 -292 164 -252
22 6 48 14 56 17 22 9 -55 -99 -116 -162 -27 -28 -73 -64 -103 -80 -45 -25
-64 -29 -128 -30 -62 0 -83 4 -120 25 -91 51 -130 137 -130 283 l0 72 26 -33
c51 -65 139 -83 190 -39 34 30 46 113 20 152 -25 38 -72 58 -119 51 l-41 -7
26 24 c52 48 49 117 -8 166 -51 45 -104 43 -151 -4 -33 -33 -35 -38 -31 -89
l5 -54 -32 24 c-45 34 -112 33 -154 -1 -35 -30 -55 -82 -45 -121 23 -97 116
-128 212 -73 18 10 32 14 32 8 0 -19 -69 -143 -100 -181 -45 -55 -149 -103
-220 -102 -97 1 -195 61 -255 155 -29 45 -61 146 -70 224 l-8 60 46 -42 c81
-75 174 -78 236 -8 100 114 -4 294 -146 256 -21 -6 -49 -18 -63 -28 l-24 -17
23 33 c67 93 15 215 -99 236 -26 4 -46 0 -79 -17z"/>
<path d="M4780 4860 c-354 -32 -753 -105 -829 -151 -38 -23 -55 -61 -47 -109
6 -42 55 -90 90 -90 14 0 89 16 168 35 653 159 1335 153 2000 -16 100 -25 120
-24 157 7 57 48 49 144 -16 177 -66 34 -399 98 -683 132 -156 19 -691 29 -840
15z"/>
<path d="M5830 2742 c-216 -57 -341 -253 -311 -491 13 -100 47 -177 107 -241
88 -94 178 -131 320 -131 264 0 444 179 444 442 0 298 -266 498 -560 421z
m235 -109 c69 -22 145 -99 174 -178 19 -51 22 -75 19 -155 -6 -145 -55 -232
-162 -288 -45 -24 -62 -27 -146 -27 -87 0 -100 3 -149 30 -105 58 -156 160
-156 310 0 75 5 99 26 145 35 74 67 110 129 144 84 46 162 51 265 19z"/>
<path d="M2290 2719 c1 -27 7 -38 33 -54 29 -18 46 -54 182 -398 l150 -377 59
2 59 3 143 360 c79 198 149 369 155 381 6 11 24 28 40 38 19 11 29 25 29 42 0
23 -3 24 -72 26 -189 5 -193 4 -196 -23 -2 -19 4 -29 23 -39 36 -19 46 -41 36
-76 -14 -49 -203 -538 -211 -547 -4 -5 -17 18 -28 50 -11 32 -59 161 -107 286
-55 146 -84 235 -80 248 4 11 17 27 31 35 14 10 24 26 24 40 0 21 -5 24 -37
24 -21 0 -82 3 -135 7 l-98 6 0 -34z"/>
<path d="M4694 2741 c-2 -2 -4 -17 -4 -32 0 -20 6 -28 25 -33 51 -13 55 -39
55 -364 0 -285 -1 -300 -20 -325 -11 -14 -29 -29 -40 -32 -14 -4 -20 -15 -20
-36 l0 -29 103 0 c56 0 119 -3 140 -6 37 -7 37 -6 37 27 0 29 -5 36 -30 46
-42 16 -51 49 -48 177 l3 111 75 3 c41 2 85 0 97 -3 23 -5 68 -72 170 -253
l59 -104 77 -4 77 -3 0 32 c-1 25 -8 36 -33 52 -20 13 -57 62 -102 135 -38 64
-78 127 -87 140 -18 24 -18 24 28 46 97 47 138 111 138 220 0 62 -3 78 -29
119 -21 33 -47 57 -85 79 l-55 31 -263 5 c-145 3 -266 3 -268 1z m495 -119
c70 -34 97 -109 67 -187 -29 -75 -64 -89 -228 -93 l-138 -4 0 149 c0 82 2 152
5 155 3 3 63 3 133 0 90 -3 137 -9 161 -20z"/>
<path d="M6410 2718 c0 -25 7 -37 28 -49 17 -10 74 -91 160 -228 l132 -212 0
-110 c0 -121 -6 -141 -50 -164 -21 -11 -30 -23 -30 -40 l0 -25 145 0 145 0 0
24 c0 18 -10 29 -37 43 -46 22 -51 38 -52 171 -1 98 1 106 27 145 16 23 70
111 121 195 96 156 118 185 160 212 18 12 22 21 17 38 -7 21 -12 22 -136 22
l-128 0 -5 -26 c-3 -19 1 -27 17 -34 31 -11 49 -37 42 -57 -4 -10 -44 -80 -88
-156 -65 -112 -83 -136 -93 -125 -20 21 -165 280 -165 295 0 7 14 22 30 35 17
12 30 31 30 43 0 20 -6 22 -92 29 -50 3 -111 6 -135 6 -42 0 -43 -1 -43 -32z"/>
<path d="M1530 2713 c0 -21 8 -33 30 -45 17 -9 35 -29 40 -43 14 -37 13 -573
-1 -614 -6 -18 -24 -38 -40 -47 -16 -8 -30 -18 -30 -22 -1 -4 -3 -17 -4 -30
l-2 -23 281 3 281 3 50 26 c60 32 78 50 104 109 58 127 -6 264 -139 300 l-25
7 31 16 c135 70 149 260 25 344 -56 38 -96 43 -353 43 l-248 0 0 -27z m495
-89 c91 -43 87 -177 -7 -223 -38 -18 -62 -21 -166 -21 l-122 0 0 128 c0 71 3
132 8 137 13 14 248 -2 287 -21z m41 -370 c49 -36 68 -70 68 -123 0 -61 -23
-97 -77 -122 -35 -15 -66 -19 -184 -19 l-143 0 0 146 0 146 154 -4 c137 -3
158 -5 182 -24z"/>
<path d="M3200 2711 c0 -23 6 -31 31 -41 17 -7 35 -24 40 -37 12 -33 12 -595
-1 -628 -5 -14 -23 -34 -40 -43 -22 -12 -30 -24 -30 -44 l0 -28 140 0 140 0 0
29 c0 22 -6 30 -25 35 -14 4 -33 18 -42 33 -16 24 -18 60 -21 303 -2 151 -1
272 2 269 7 -6 131 -263 224 -462 l46 -98 60 3 59 3 91 190 c50 105 112 235
138 290 l47 100 0 -276 c1 -173 -3 -288 -10 -307 -6 -19 -22 -36 -40 -44 -22
-10 -29 -20 -29 -40 l0 -28 140 0 140 0 0 30 c0 20 -5 30 -15 30 -9 0 -27 11
-40 25 l-25 24 0 311 c0 194 4 319 10 331 6 10 24 26 40 34 21 11 30 23 30 40
l0 25 -121 0 -120 0 -61 -127 c-33 -71 -85 -180 -115 -243 -31 -63 -69 -144
-85 -180 l-30 -65 -74 155 c-41 85 -107 224 -147 307 l-72 153 -117 0 -118 0
0 -29z"/>
<path d="M7390 2715 c0 -17 8 -29 24 -37 50 -22 55 -7 -123 -403 -102 -228
-127 -276 -161 -306 -23 -21 -40 -46 -40 -58 0 -20 4 -21 135 -21 134 0 135 0
135 23 0 14 -12 32 -30 45 -36 27 -38 51 -9 121 l22 51 203 0 204 0 26 -57
c29 -68 26 -97 -16 -121 -19 -11 -30 -25 -30 -39 0 -23 1 -23 140 -23 136 0
140 1 140 21 0 12 -17 37 -40 58 -34 30 -58 77 -160 306 -67 149 -140 314
-163 367 l-42 98 -107 0 -108 0 0 -25z m240 -305 c40 -91 74 -171 77 -177 4
-10 -32 -13 -162 -13 -92 0 -165 3 -163 8 2 4 39 92 83 195 56 132 82 182 87
169 4 -9 39 -91 78 -182z"/>
<path d="M8070 2715 c0 -17 9 -29 30 -40 17 -9 35 -27 40 -41 14 -35 13 -620
0 -645 -6 -10 -24 -26 -40 -34 -21 -11 -30 -23 -30 -40 l0 -25 208 -2 c228 -3
464 2 472 9 3 3 15 169 15 213 0 1 -16 3 -35 6 -34 5 -35 4 -53 -46 -10 -27
-28 -56 -40 -64 -29 -18 -153 -27 -272 -19 l-96 6 3 318 c3 301 4 318 23 339
11 12 30 26 41 30 16 7 20 15 17 34 l-5 26 -139 0 -139 0 0 -25z"/>
<path d="M1664 1664 c-55 -19 -120 -76 -146 -128 -16 -29 -23 -65 -26 -128 -4
-76 -1 -92 20 -140 29 -61 66 -101 123 -131 54 -28 183 -30 235 -3 35 18 110
84 110 96 0 4 -11 12 -25 18 -22 10 -30 8 -70 -23 -72 -55 -161 -58 -236 -10
-46 30 -72 84 -77 162 -10 149 75 244 209 231 68 -7 104 -34 104 -79 0 -28 -4
-35 -23 -37 -19 -3 -23 -9 -20 -30 2 -21 9 -28 31 -30 40 -5 74 21 88 66 36
123 -140 221 -297 166z"/>
<path d="M2206 1660 c-106 -42 -170 -139 -170 -255 -1 -102 24 -164 86 -220
138 -124 365 -83 443 81 23 48 31 156 16 211 -18 67 -70 133 -130 166 -71 40
-172 47 -245 17z m187 -66 c46 -23 66 -44 89 -87 43 -84 29 -214 -29 -269 -63
-61 -158 -75 -234 -35 -33 18 -51 37 -72 78 -26 48 -28 62 -25 130 2 63 8 83
31 118 48 73 163 104 240 65z"/>
<path d="M3432 1662 c-64 -23 -105 -60 -140 -127 -22 -42 -26 -63 -27 -135 0
-107 20 -164 80 -219 45 -41 120 -71 180 -71 60 0 135 30 181 72 24 22 44 44
44 48 0 3 -11 12 -24 20 -22 11 -28 9 -63 -18 -93 -73 -206 -66 -276 17 -82
98 -51 288 56 340 78 38 189 23 217 -29 15 -29 3 -59 -26 -66 -42 -11 -24 -64
22 -64 31 0 72 42 79 83 23 120 -149 204 -303 149z"/>
<path d="M2660 1651 c0 -10 10 -25 23 -33 21 -15 22 -22 26 -192 4 -209 -1
-243 -35 -258 -13 -6 -24 -19 -24 -30 0 -16 9 -18 90 -18 83 0 90 1 90 20 0
11 -3 20 -7 20 -34 1 -38 20 -43 190 -3 93 -2 169 2 168 9 -4 120 -145 225
-285 74 -100 87 -113 113 -113 l30 0 0 235 0 236 25 25 c46 45 35 54 -65 54
-81 0 -90 -2 -90 -18 0 -11 11 -24 24 -30 33 -15 38 -46 34 -217 l-3 -140 -95
125 c-52 69 -121 160 -155 202 l-60 78 -52 0 c-45 0 -53 -3 -53 -19z"/>
<path d="M3810 1652 c0 -9 10 -22 22 -27 33 -15 38 -52 35 -252 l-2 -183 -27
-25 c-16 -14 -28 -30 -28 -35 0 -6 84 -10 215 -10 l215 0 0 60 c0 33 1 63 3
68 1 4 -8 8 -20 10 -17 3 -23 -2 -23 -15 0 -44 -19 -52 -140 -55 l-115 -3 -3
93 -3 92 70 0 c60 0 72 -3 81 -20 6 -11 19 -20 30 -20 18 0 19 6 17 70 -2 63
-4 70 -22 70 -11 0 -26 -9 -33 -20 -11 -18 -21 -21 -75 -18 l-62 3 -3 88 -3
87 105 0 c97 0 106 -2 120 -22 9 -12 16 -30 16 -40 0 -13 8 -18 25 -18 24 0
25 2 25 70 l0 70 -210 0 c-194 0 -210 -1 -210 -18z"/>
<path d="M4310 1655 c0 -10 11 -26 25 -37 l25 -19 0 -204 0 -204 -25 -19 c-14
-11 -25 -27 -25 -36 0 -14 14 -16 95 -16 87 0 95 2 95 19 0 11 -9 23 -21 26
-26 9 -39 44 -39 109 l0 53 93 5 c155 8 217 57 217 169 0 69 -27 115 -85 144
-34 17 -64 20 -197 23 -142 3 -158 2 -158 -13z m282 -55 c55 -16 81 -54 75
-110 -7 -62 -38 -86 -120 -95 -106 -11 -107 -10 -107 104 0 54 3 101 7 104 10
11 103 8 145 -3z"/>
<path d="M4790 1595 c0 -73 1 -75 25 -75 19 0 25 5 25 23 0 12 7 33 16 45 14
20 23 23 77 20 l62 -3 0 -203 0 -204 -27 -23 c-52 -45 -39 -55 67 -55 88 0 95
1 95 20 0 11 -4 20 -9 20 -5 0 -17 7 -25 16 -14 13 -16 48 -16 225 l0 209 59
0 c66 0 88 -14 98 -61 4 -22 11 -29 29 -29 23 0 24 3 24 75 l0 75 -250 0 -250
0 0 -75z"/>
<path d="M5500 1650 c0 -11 6 -20 14 -20 8 0 22 -10 30 -22 13 -18 16 -57 16
-215 0 -180 -1 -194 -20 -213 -11 -11 -24 -20 -30 -20 -5 0 -10 -9 -10 -20 0
-19 7 -20 214 -20 l214 0 4 70 c3 67 2 70 -19 70 -13 0 -23 -6 -23 -14 0 -8
-8 -24 -19 -37 -17 -21 -28 -23 -112 -25 -143 -3 -131 -21 -125 179 4 95 6
189 6 210 0 30 5 40 25 49 14 6 25 19 25 30 0 16 -9 18 -95 18 -88 0 -95 -1
-95 -20z"/>
<path d="M5990 1650 c0 -11 4 -20 8 -20 5 0 16 -6 26 -13 17 -12 19 -35 23
-210 5 -204 1 -230 -37 -242 -11 -3 -20 -15 -20 -26 0 -17 8 -19 95 -19 88 0
95 1 95 20 0 11 -4 20 -10 20 -5 0 -19 9 -30 20 -19 19 -20 33 -20 213 0 158
3 197 16 215 8 12 22 22 30 22 8 0 14 9 14 20 0 19 -7 20 -95 20 -88 0 -95 -1
-95 -20z"/>
<path d="M6240 1654 c0 -9 11 -25 25 -36 l25 -19 0 -204 0 -204 -25 -19 c-14
-11 -25 -27 -25 -36 0 -24 168 -24 177 1 4 10 1 19 -6 21 -8 3 -22 13 -32 23
-17 17 -19 36 -18 197 l1 177 87 -179 c83 -170 100 -193 138 -195 7 -1 53 79
101 176 l89 176 6 -79 c6 -75 1 -213 -9 -261 -2 -12 -13 -25 -24 -28 -11 -3
-20 -15 -20 -26 0 -17 8 -19 90 -19 76 0 90 3 90 16 0 9 -11 25 -25 36 l-25
19 0 204 0 204 25 19 c14 11 25 27 25 36 0 13 -13 16 -76 16 l-75 0 -22 -52
c-12 -29 -52 -116 -90 -193 -62 -128 -87 -167 -87 -135 0 7 -39 95 -87 196
l-87 184 -73 0 c-60 0 -73 -3 -73 -16z"/>
<path d="M6970 1651 c0 -11 8 -22 18 -26 11 -3 24 -17 30 -31 13 -27 16 -215
5 -338 -5 -69 -9 -79 -30 -89 -12 -5 -23 -18 -23 -29 0 -16 9 -18 95 -18 87 0
95 2 95 19 0 11 -9 22 -19 26 -36 11 -42 53 -39 250 l3 187 28 22 c48 38 36
46 -68 46 -87 0 -95 -2 -95 -19z"/>
<path d="M7200 1595 c0 -72 1 -75 24 -75 18 0 25 7 30 32 10 50 22 58 92 58
l64 0 0 -205 c0 -192 -1 -206 -20 -225 -11 -11 -24 -20 -30 -20 -5 0 -10 -9
-10 -20 0 -19 7 -20 95 -20 81 0 95 2 95 16 0 9 -11 25 -25 36 l-25 19 0 210
0 209 54 0 c61 0 83 -15 93 -61 4 -22 11 -29 29 -29 23 0 24 3 24 75 l0 75
-245 0 -245 0 0 -75z"/>
<path d="M7750 1659 c0 -6 14 -24 30 -39 l30 -28 0 -196 0 -197 -25 -23 c-14
-13 -25 -31 -25 -40 0 -15 20 -16 213 -14 l212 3 3 68 c3 66 3 67 -23 67 -18
0 -25 -5 -25 -18 0 -38 -31 -51 -143 -58 l-107 -7 0 97 0 96 70 0 c59 0 71 -3
80 -20 6 -11 17 -20 25 -20 12 0 15 15 15 70 0 63 -2 70 -20 70 -10 0 -24 -9
-30 -20 -9 -17 -21 -20 -75 -20 l-65 0 0 90 0 90 104 0 c110 0 118 -3 130 -52
5 -22 12 -28 32 -28 20 0 25 4 20 16 -3 9 -6 40 -6 70 l0 54 -210 0 c-146 0
-210 -3 -210 -11z"/>
<path d="M8250 1654 c0 -9 11 -25 25 -36 l25 -19 0 -210 0 -209 -25 -12 c-14
-6 -25 -19 -25 -30 0 -17 11 -18 140 -18 162 0 221 10 284 50 125 79 143 310
33 424 -60 63 -112 76 -304 76 -134 0 -153 -2 -153 -16z m300 -55 c57 -13 108
-52 127 -98 25 -58 21 -161 -8 -218 -36 -70 -87 -93 -201 -93 l-88 0 0 210 0
210 63 0 c34 0 82 -5 107 -11z"/>
</g>
</svg>
